<mxfile host="app.diagrams.net" modified="2021-06-09T06:25:11.306Z" agent="5.0 (Windows NT 10.0; Win64; x64) AppleWebKit/537.36 (KHTML, like Gecko) Chrome/91.0.4472.77 Safari/537.36" etag="qFH66WId76EhocDBn5MV" version="14.7.6" type="github">
  <diagram name="Page-1" id="8ce9d11a-91a2-4d17-14d8-a56ed91bf033">
    <mxGraphModel dx="1221" dy="644" grid="1" gridSize="10" guides="1" tooltips="1" connect="1" arrows="1" fold="1" page="1" pageScale="1" pageWidth="1100" pageHeight="850" background="none" math="0" shadow="0">
      <root>
        <mxCell id="0" />
        <mxCell id="1" parent="0" />
        <mxCell id="ca17TIdBnsyqAy06iOv3-6" style="edgeStyle=orthogonalEdgeStyle;rounded=0;orthogonalLoop=1;jettySize=auto;html=1;exitX=1;exitY=0.5;exitDx=0;exitDy=0;entryX=0;entryY=0.5;entryDx=0;entryDy=0;fontSize=14;" edge="1" parent="1" source="ca17TIdBnsyqAy06iOv3-1" target="ca17TIdBnsyqAy06iOv3-4">
          <mxGeometry relative="1" as="geometry" />
        </mxCell>
        <mxCell id="ca17TIdBnsyqAy06iOv3-1" value="main page" style="ellipse;whiteSpace=wrap;html=1;fontSize=14;fillColor=#dae8fc;strokeColor=#6c8ebf;" vertex="1" parent="1">
          <mxGeometry x="70" y="160" width="120" height="80" as="geometry" />
        </mxCell>
        <mxCell id="ca17TIdBnsyqAy06iOv3-2" value="&lt;h1&gt;ENDERS&amp;nbsp;&lt;/h1&gt;&lt;h1&gt;Homepage FlowChart&lt;/h1&gt;&lt;p&gt;&lt;br&gt;&lt;/p&gt;" style="text;html=1;strokeColor=none;fillColor=none;spacing=5;spacingTop=-20;whiteSpace=wrap;overflow=hidden;rounded=0;" vertex="1" parent="1">
          <mxGeometry x="60" y="40" width="330" height="120" as="geometry" />
        </mxCell>
        <mxCell id="ca17TIdBnsyqAy06iOv3-3" value="end" style="ellipse;whiteSpace=wrap;html=1;fontSize=14;" vertex="1" parent="1">
          <mxGeometry x="900" y="690" width="120" height="80" as="geometry" />
        </mxCell>
        <mxCell id="ca17TIdBnsyqAy06iOv3-7" style="edgeStyle=orthogonalEdgeStyle;rounded=0;orthogonalLoop=1;jettySize=auto;html=1;fontSize=14;entryX=0;entryY=0.5;entryDx=0;entryDy=0;" edge="1" parent="1" source="ca17TIdBnsyqAy06iOv3-4" target="ca17TIdBnsyqAy06iOv3-8">
          <mxGeometry relative="1" as="geometry">
            <mxPoint x="470" y="200" as="targetPoint" />
          </mxGeometry>
        </mxCell>
        <mxCell id="ca17TIdBnsyqAy06iOv3-9" style="edgeStyle=orthogonalEdgeStyle;rounded=0;orthogonalLoop=1;jettySize=auto;html=1;fontSize=14;entryX=0;entryY=0.5;entryDx=0;entryDy=0;exitX=0.5;exitY=1;exitDx=0;exitDy=0;" edge="1" parent="1" source="ca17TIdBnsyqAy06iOv3-4" target="ca17TIdBnsyqAy06iOv3-10">
          <mxGeometry relative="1" as="geometry">
            <mxPoint x="330" y="280" as="targetPoint" />
            <Array as="points">
              <mxPoint x="330" y="310" />
            </Array>
          </mxGeometry>
        </mxCell>
        <mxCell id="ca17TIdBnsyqAy06iOv3-4" value="&lt;font style=&quot;font-size: 9px&quot;&gt;페이지에 5분 이상&lt;br&gt;&amp;nbsp;머물렀는가?&amp;nbsp;&lt;/font&gt;" style="rhombus;whiteSpace=wrap;html=1;fontSize=14;" vertex="1" parent="1">
          <mxGeometry x="270" y="165" width="120" height="70" as="geometry" />
        </mxCell>
        <mxCell id="ca17TIdBnsyqAy06iOv3-17" value="" style="edgeStyle=orthogonalEdgeStyle;rounded=0;orthogonalLoop=1;jettySize=auto;html=1;fontSize=14;" edge="1" parent="1" source="ca17TIdBnsyqAy06iOv3-8" target="ca17TIdBnsyqAy06iOv3-16">
          <mxGeometry relative="1" as="geometry" />
        </mxCell>
        <mxCell id="ca17TIdBnsyqAy06iOv3-21" style="edgeStyle=orthogonalEdgeStyle;rounded=0;orthogonalLoop=1;jettySize=auto;html=1;fontSize=14;" edge="1" parent="1" source="ca17TIdBnsyqAy06iOv3-8">
          <mxGeometry relative="1" as="geometry">
            <mxPoint x="690" y="280" as="targetPoint" />
          </mxGeometry>
        </mxCell>
        <mxCell id="ca17TIdBnsyqAy06iOv3-8" value="&lt;font style=&quot;font-size: 10px&quot;&gt;문의 상담페이지로 &lt;br&gt;가는 팝업 발생&lt;/font&gt;" style="shape=document;whiteSpace=wrap;html=1;boundedLbl=1;fontSize=14;" vertex="1" parent="1">
          <mxGeometry x="630" y="167.5" width="120" height="65" as="geometry" />
        </mxCell>
        <mxCell id="ca17TIdBnsyqAy06iOv3-10" value="Main page&amp;nbsp;&lt;br&gt;유지" style="rounded=0;whiteSpace=wrap;html=1;fontSize=14;" vertex="1" parent="1">
          <mxGeometry x="635" y="280" width="110" height="60" as="geometry" />
        </mxCell>
        <mxCell id="ca17TIdBnsyqAy06iOv3-16" value="문의 상담 페이지" style="whiteSpace=wrap;html=1;fontSize=14;" vertex="1" parent="1">
          <mxGeometry x="840" y="170" width="120" height="60" as="geometry" />
        </mxCell>
        <mxCell id="ca17TIdBnsyqAy06iOv3-18" value="YES" style="text;html=1;strokeColor=none;fillColor=none;align=center;verticalAlign=middle;whiteSpace=wrap;rounded=0;fontSize=14;" vertex="1" parent="1">
          <mxGeometry x="770" y="170" width="40" height="20" as="geometry" />
        </mxCell>
        <mxCell id="ca17TIdBnsyqAy06iOv3-19" style="edgeStyle=orthogonalEdgeStyle;rounded=0;orthogonalLoop=1;jettySize=auto;html=1;exitX=0.5;exitY=1;exitDx=0;exitDy=0;fontSize=14;" edge="1" parent="1" source="ca17TIdBnsyqAy06iOv3-18" target="ca17TIdBnsyqAy06iOv3-18">
          <mxGeometry relative="1" as="geometry" />
        </mxCell>
        <mxCell id="ca17TIdBnsyqAy06iOv3-20" value="NO" style="text;html=1;strokeColor=none;fillColor=none;align=center;verticalAlign=middle;whiteSpace=wrap;rounded=0;fontSize=14;fontColor=#FF3333;" vertex="1" parent="1">
          <mxGeometry x="700" y="240" width="40" height="20" as="geometry" />
        </mxCell>
      </root>
    </mxGraphModel>
  </diagram>
</mxfile>
